<svg
   width="140.84654mm"
   height="183.10056mm"
   viewBox="0 0 140.84654 183.10056"
   version="1.1"
   id="svg5"
   xmlns="http://www.w3.org/2000/svg"
   xmlns:svg="http://www.w3.org/2000/svg">
  <defs
     id="defs2">
    <style
       id="style1883">.cls-1{fill:#101010;}</style>
  </defs>
  <g
     id="layer1"
     transform="translate(-25.379944,-17.781211)">
    <g
       style="fill:#c5c5c5"
       id="g29"
       transform="matrix(0.2028582,0,0,0.2028582,43.766669,73.643295)">
      <g
         id="SVGRepo_bgCarrier"
         stroke-width="0" />
      <g
         id="SVGRepo_tracerCarrier"
         stroke-linecap="round"
         stroke-linejoin="round" />
    </g>
    <path
       d="M 25.379944,17.781211 V 200.88177 H 166.22649 V 64.216577 l -1.98055,-2.200734 -42.25398,-42.25398 -2.20081,-1.980652 z m 14.08467,14.084656 H 109.8879 v 42.253968 h 42.25397 V 186.79712 H 39.464614 Z m 84.507876,10.12335 18.04599,18.045969 h -18.04599 z"
       id="path2876"
       style="fill:#c5c5c5;fill-opacity:1;stroke:none;stroke-width:2.52496;stroke-miterlimit:4;stroke-dasharray:none;stroke-opacity:1" />
    <g
       style="fill:#c5c5c5"
       id="g3114"
       transform="matrix(0.24115982,0,0,0.24115982,32.056331,53.02872)">
      <g
         id="SVGRepo_bgCarrier-9"
         stroke-width="0" />
      <g
         id="SVGRepo_tracerCarrier-1"
         stroke-linecap="round"
         stroke-linejoin="round" />
      <g
         id="SVGRepo_iconCarrier-2">
                <style
   type="text/css"
   id="style3093"> .st0{fill:#C5C5C5;} </style>

            <g
   id="g3099">
            <path
   class="st0"
   d="m 395.25,443.374 c -2.552,-2.5 -4.37,-5.249 -5.636,-8.24 -1.886,-4.469 -2.424,-9.521 -1.552,-14.315 0.886,-4.795 3.029,-9.21 6.748,-13.035 l 47.694,-48.899 c 8.953,-9.164 15.724,-19.852 20.148,-31.19 6.65,-17.011 8.12,-35.424 4.484,-53.041 -3.613,-17.595 -12.482,-34.523 -26.267,-47.944 -9.164,-8.953 -19.86,-15.724 -31.19,-20.147 -17.011,-6.65 -35.424,-8.12 -53.034,-4.491 -17.602,3.62 -34.53,12.489 -47.959,26.274 l -77.816,79.77 c -2.499,2.552 -5.256,4.378 -8.248,5.636 -4.46,1.886 -9.52,2.424 -14.307,1.56 -4.802,-0.894 -9.21,-3.037 -13.034,-6.755 -2.552,-2.492 -4.37,-5.242 -5.635,-8.241 -1.886,-4.469 -2.424,-9.513 -1.553,-14.3 0.886,-4.802 3.029,-9.218 6.74,-13.042 l 20.087,-20.586 c 8.952,-9.165 15.723,-19.86 20.146,-31.19 6.651,-17.012 8.12,-35.424 4.484,-53.034 -3.469,-16.906 -11.831,-33.137 -24.677,-46.293 L 204.194,86.409 C 198.15,66.292 182.024,50.795 161.688,45.539 l -40.34,-10.437 c -7.513,-1.939 -15.496,0.288 -20.919,5.832 L 85.613,56.125 c -5.423,5.552 -7.446,13.588 -5.316,21.048 l 11.429,40.074 c 5.764,20.208 21.654,35.932 41.923,41.491 l 33.174,9.089 c 0,0 3.136,6.514 4.393,9.506 1.886,4.477 2.424,9.52 1.56,14.307 -0.894,4.803 -3.037,9.218 -6.756,13.043 l -20.08,20.587 c -8.945,9.172 -15.716,19.859 -20.146,31.19 -6.643,17.011 -8.112,35.424 -4.477,53.041 3.606,17.595 12.482,34.531 26.26,47.952 9.164,8.953 19.859,15.724 31.19,20.148 17.012,6.65 35.424,8.112 53.042,4.484 17.602,-3.62 34.523,-12.482 47.951,-26.267 l 77.824,-79.778 c 2.5,-2.545 5.249,-4.37 8.24,-5.628 4.469,-1.886 9.521,-2.432 14.3,-1.56 4.802,0.894 9.225,3.037 13.042,6.748 2.56,2.5 4.378,5.249 5.635,8.24 1.893,4.469 2.431,9.521 1.56,14.308 -0.886,4.802 -3.037,9.21 -6.748,13.042 l -47.702,48.891 c -8.953,9.164 -15.716,19.867 -20.147,31.198 -6.643,17.004 -8.112,35.416 -4.476,53.034 3.606,17.602 12.482,34.522 26.26,47.952 41.18,40.165 117.088,11.262 123.087,-18.05 -21.594,1.538 -55.397,-7.574 -75.385,-30.841 z"
   id="path3095" />
 <path
   class="st0"
   d="m 92.786,42.461 c 0,0 -32.19,-30.403 -31.713,-42.461 -7.165,7.166 0.576,20.284 0.576,20.284 0,0 -13.118,-7.741 -20.284,-0.576 12.066,-0.478 42.468,31.706 42.468,31.706 z"
   id="path3097" />
 
        </g>

    </g>
    </g>
  </g>
</svg>
