<?xml version="1.0" encoding="UTF-8" standalone="no"?>
<svg
   version="1.0"
   width="661.06458pt"
   height="661.06458pt"
   viewBox="0 0 661.06458 661.06458"
   preserveAspectRatio="xMidYMid meet"
   id="svg882"
   sodipodi:docname="fuzzoor.svg"
   inkscape:version="1.1.2 (0a00cf5339, 2022-02-04)"
   xmlns:inkscape="http://www.inkscape.org/namespaces/inkscape"
   xmlns:sodipodi="http://sodipodi.sourceforge.net/DTD/sodipodi-0.dtd"
   xmlns="http://www.w3.org/2000/svg"
   xmlns:svg="http://www.w3.org/2000/svg">
  <defs
     id="defs886" />
  <sodipodi:namedview
     id="namedview884"
     pagecolor="#ffffff"
     bordercolor="#000000"
     borderopacity="0.25"
     inkscape:pageshadow="2"
     inkscape:pageopacity="0.0"
     inkscape:pagecheckerboard="0"
     inkscape:document-units="pt"
     showgrid="false"
     fit-margin-top="0"
     fit-margin-left="0"
     fit-margin-right="0"
     fit-margin-bottom="0"
     inkscape:zoom="0.53662571"
     inkscape:cx="324.24835"
     inkscape:cy="472.3963"
     inkscape:window-width="1920"
     inkscape:window-height="966"
     inkscape:window-x="1600"
     inkscape:window-y="27"
     inkscape:window-maximized="1"
     inkscape:current-layer="g880" />
  <g
     transform="matrix(0.1,0,0,-0.1,1271.9513,582.53633)"
     fill="#000000"
     stroke="none"
     id="g880">
    <circle
       style="fill:#f96c55;fill-opacity:1;stroke-width:105.7"
       id="path2856"
       cx="-9414.1904"
       cy="-2520.0403"
       transform="scale(1,-1)"
       r="3305.323" />
    <g
       id="g2962"
       transform="translate(-12049.19,69.458779)"
       style="fill:#ffffff;fill-opacity:1">
      <g
         id="g970"
         style="fill:#ffffff;fill-opacity:1">
        <path
           d="m 578,3558.9653 c -46,-26.2767 -79,-73.5746 -85,-125.0768 -11,-85.1363 -1,-97.749 320,-413.0686 166,-161.864 313,-305.8599 326,-318.4727 23,-24.1745 23,-24.1745 7,-96.698 -20,-93.5448 -46,-275.379 -46,-323.728 v -36.7873 H 685 c -460,0 -456,0 -513,-67.2682 -37,-45.1958 -46,-75.6767 -39,-134.5363 10,-77.7788 61,-128.23 146,-145.047 30,-6.3064 221,-10.5106 437,-10.5106 h 384 v -32.5831 c 0,-114.5661 58,-406.7622 117,-590.6985 l 37,-112.464 -37,-39.9405 C 1197,1091.0644 1037,933.40465 862,763.1321 687,592.85956 532,437.30192 519,417.33168 486,366.88056 485,278.59109 518,229.19103 c 51,-74.62562 170,-99.85118 243,-51.50219 20,12.61278 175,158.71083 345,325.83018 169,166.06829 311,301.65569 314,301.65569 3,0 34,-44.14474 70,-96.69799 92,-139.79166 309,-364.71959 435,-453.00906 178,-122.97462 409,-221.774736 576,-244.898168 l 49,-7.3574555 V 596.01275 1188.8135 l -541,809.3201 -540,809.3201 -337,365.7707 c -191,208.1109 -353,375.2302 -374,386.7919 -49,26.2767 -131,26.2767 -180,-1.051 z"
           id="path874"
           style="fill:#ffffff;fill-opacity:1;stroke-width:1.02521" />
        <path
           d="m 4510,3558.9653 c -19,-10.5107 -186,-182.8854 -369,-382.5877 L 3806,2812.709 3268,2006.5421 2730,1200.3752 V 603.37021 c 0,-583.341132 0,-597.0049782 19,-597.0049782 42,0 253,64.1149712 340,103.0043782 204,92.49373 351,202.85557 522,388.89409 63,68.31923 141,166.06828 174,215.46834 32,50.45113 62,91.44267 65,91.44267 4,0 149,-139.79166 323,-310.06421 174,-170.27254 330,-316.37059 346,-325.83018 39,-21.0213 124,-19.97023 168,1.05107 83,42.0426 118,158.71083 71,236.48964 -13,21.02131 -184,195.49811 -380,387.84302 -197,191.29385 -358,353.15785 -358,358.41325 0,5.2553 18,65.166 39,133.4852 50,156.6087 89,341.5962 104,487.6942 l 11,113.5151 h 382 c 214,0 405,4.2042 435,10.5106 85,16.817 136,67.2682 146,145.047 7,58.8596 -2,89.3405 -39,134.5363 -57,67.2682 -54,67.2682 -511,67.2682 h -414 l -7,83.0341 c -3,46.2469 -16,136.6385 -27,202.8556 -12,65.166 -22,126.1278 -23,135.5874 0,9.4596 138,152.4044 312,323.728 171,168.1705 320,319.5238 330,334.2387 25,42.0426 23,139.7917 -4,178.6811 -52,72.5235 -167,99.8512 -244,55.7065 z"
           id="path876"
           style="fill:#ffffff;fill-opacity:1;stroke-width:1.02521" />
      </g>
      <g
         id="g974"
         transform="translate(12.983973,-150)"
         style="fill:#ffffff;fill-opacity:1">
        <path
           d="m 2023.879,4690.091 c -324.7845,-579.0642 -590.6223,-1056.4165 -590.6223,-1061.0397 0,-4.6233 268.1495,-179.1516 595.2456,-388.3544 l 594.0898,-379.1079 590.6223,379.1079 c 324.7845,208.047 588.3107,384.8869 587.1549,392.9776 -5.7791,23.1164 -1170.8423,2108.2097 -1177.7772,2108.2097 -3.4675,0 -272.7728,-473.8849 -598.7131,-1051.7932 z"
           id="path872"
           style="fill:#ffffff;fill-opacity:1;stroke-width:1.15582" />
        <path
           d="m 3218.9935,3001.4428 c -323.6287,-209.2028 -595.2456,-377.952 -603.3363,-374.4846 -10.4024,3.4675 -951.2372,598.713 -1158.1283,732.7878 -24.2722,15.0256 -21.9606,8.0907 17.3372,-52.0118 142.1655,-220.761 1144.2585,-1726.7901 1148.8818,-1726.7901 3.4674,1.1558 271.6169,405.6917 597.5572,901.537 324.7845,495.8454 590.6223,901.537 589.4665,900.3812 -1.1558,0 -266.9936,-172.2167 -591.7781,-381.4195 z"
           id="path878"
           style="fill:#ffffff;fill-opacity:1;stroke-width:1.15582" />
      </g>
    </g>
  </g>
</svg>
