<svg
   width="140.84654mm"
   height="183.10056mm"
   viewBox="0 0 140.84654 183.10056"
   version="1.1"
   id="svg5"
   xmlns="http://www.w3.org/2000/svg"
   xmlns:svg="http://www.w3.org/2000/svg">
  <defs
     id="defs2">
    <style
       id="style1883">.cls-1{fill:#101010;}</style>
  </defs>
  <g
     id="layer1"
     transform="translate(-25.379944,-17.781211)">
    <g
       style="fill:#656565"
       id="g29"
       transform="matrix(0.2028582,0,0,0.2028582,43.766669,73.643295)">
      <g
         id="SVGRepo_bgCarrier"
         stroke-width="0" />
      <g
         id="SVGRepo_tracerCarrier"
         stroke-linecap="round"
         stroke-linejoin="round" />
      <g
         id="SVGRepo_iconCarrier">
                <style
   type="text/css"
   id="style11"> .st0{fill:#656565;} </style>

            <g
   id="g15">
            <path
   class="st0"
   d="m 488.945,374.873 c -2.3,0 -4.517,0.346 -6.61,0.981 L 432.269,311.478 409.213,155.862 365.988,214.938 299.708,106.867 275.21,194.76 184.432,91.016 177.228,207.734 59.076,148.658 113.833,274.015 0,271.13 86.45,354.703 2.885,409.46 109.505,420.984 H 486.06 v -0.198 c 0.948,0.116 1.912,0.198 2.885,0.198 12.735,0 23.055,-10.32 23.055,-23.056 0,-12.727 -10.32,-23.055 -23.055,-23.055 z m -78.767,3.553 c -10.444,0 -18.917,-8.474 -18.917,-18.917 0,-10.443 8.474,-18.917 18.917,-18.917 10.448,0 18.908,8.474 18.908,18.917 0,10.443 -8.461,18.917 -18.908,18.917 z"
   id="path13" />

        </g>

    </g>
    </g>
    <path
       d="M 25.379944,17.781211 V 200.88177 H 166.22649 V 64.216577 l -1.98055,-2.200734 -42.25398,-42.25398 -2.20081,-1.980652 z m 14.08467,14.084656 H 109.8879 v 42.253968 h 42.25397 V 186.79712 H 39.464614 Z m 84.507876,10.12335 18.04599,18.045969 h -18.04599 z"
       id="path2876"
       style="fill:#656565;fill-opacity:1;stroke:none;stroke-width:2.52496;stroke-miterlimit:4;stroke-dasharray:none;stroke-opacity:1" />
  </g>
</svg>
